<svg xmlns="http://www.w3.org/2000/svg" viewBox="0 0 120 120">
  <defs><linearGradient id="g" x1="0" y1="0" x2="1" y2="1"><stop stop-color="#16f08b"/><stop offset="1" stop-color="#14b8ff"/></linearGradient></defs>
  <rect width="120" height="120" rx="30" fill="#071018"/>
  <circle cx="60" cy="60" r="42" fill="url(#g)" opacity=".18"/>
  <path d="M60 18a42 42 0 1 0 0 84 42 42 0 0 0 0-84Zm0 10 17 12-7 20H50l-7-20 17-12Zm-28 38 15-9 15 11-6 18H39L32 66Zm56 0-7 20H64l-6-18 15-11 15 9ZM44 94l6-18h20l6 18a34 34 0 0 1-32 0Z" fill="url(#g)"/>
</svg>
